HIERARCHY
ROOT Hips
{
	OFFSET -1.602300 6.242603 43.997101
	CHANNELS 6 Xposition Yposition Zposition Zrotation Xrotation Yrotation
	JOINT Chest
	{
		OFFSET -0.204900 1.598101 7.917301
		CHANNELS 6 Xposition Yposition Zposition Zrotation Xrotation Yrotation
		JOINT Chest2
		{
			OFFSET 0.000000 0.000000 3.404099
			CHANNELS 6 Xposition Yposition Zposition Zrotation Xrotation Yrotation
			JOINT Neck
			{
				OFFSET 0.000000 0.000000 7.928600
				CHANNELS 6 Xposition Yposition Zposition Zrotation Xrotation Yrotation
				JOINT Head
				{
					OFFSET 0.000000 0.000000 2.173897
					CHANNELS 6 Xposition Yposition Zposition Zrotation Xrotation Yrotation
					End Site
					{
						OFFSET 0.000000 0.000001 10.404503
					}
				}
			}
			JOINT LeftCollar
			{
				OFFSET 2.833800 -1.396299 4.843300
				CHANNELS 6 Xposition Yposition Zposition Zrotation Xrotation Yrotation
				JOINT LeftShoulder
				{
					OFFSET 4.363600 0.000000 0.000000
					CHANNELS 6 Xposition Yposition Zposition Zrotation Xrotation Yrotation
					JOINT LeftElbow
					{
						OFFSET 0.000000 -0.000001 -10.306900
						CHANNELS 6 Xposition Yposition Zposition Zrotation Xrotation Yrotation
						JOINT LeftWrist
						{
							OFFSET 0.000000 -0.000001 -12.404900
							CHANNELS 6 Xposition Yposition Zposition Zrotation Xrotation Yrotation
							End Site
							{
								OFFSET 0.000000 0.000000 -2.173901
							}
						}
					}
				}
			}
			JOINT RightCollar
			{
				OFFSET -2.354800 -1.897200 5.063099
				CHANNELS 6 Xposition Yposition Zposition Zrotation Xrotation Yrotation
				JOINT RightShoulder
				{
					OFFSET -4.375800 0.000000 0.000000
					CHANNELS 6 Xposition Yposition Zposition Zrotation Xrotation Yrotation
					JOINT RightElbow
					{
						OFFSET 0.000000 -0.000001 -10.005001
						CHANNELS 6 Xposition Yposition Zposition Zrotation Xrotation Yrotation
						JOINT RightWrist
						{
							OFFSET 0.000000 -0.000001 -13.174900
							CHANNELS 6 Xposition Yposition Zposition Zrotation Xrotation Yrotation
							End Site
							{
								OFFSET 0.000000 0.000000 -2.173901
							}
						}
					}
				}
			}
		}
	}
	JOINT LeftHip
	{
		OFFSET 2.240600 0.386800 -2.614101
		CHANNELS 6 Xposition Yposition Zposition Zrotation Xrotation Yrotation
		JOINT LeftKnee
		{
			OFFSET 0.000000 -0.000001 -18.592899
			CHANNELS 6 Xposition Yposition Zposition Zrotation Xrotation Yrotation
			JOINT LeftAnkle
			{
				OFFSET 0.000000 -0.000001 -18.765800
				CHANNELS 6 Xposition Yposition Zposition Zrotation Xrotation Yrotation
				End Site
				{
					OFFSET 0.000000 -8.655000 0.000000
				}
			}
		}
	}
	JOINT RightHip
	{
		OFFSET -2.014900 -0.220900 -2.615898
		CHANNELS 6 Xposition Yposition Zposition Zrotation Xrotation Yrotation
		JOINT RightKnee
		{
			OFFSET 0.000000 -0.000001 -18.633900
			CHANNELS 6 Xposition Yposition Zposition Zrotation Xrotation Yrotation
			JOINT RightAnkle
			{
				OFFSET 0.000000 -0.000001 -18.285101
				CHANNELS 6 Xposition Yposition Zposition Zrotation Xrotation Yrotation
				End Site
				{
					OFFSET 0.000000 -7.524500 0.000000
				}
			}
		}
	}
}
MOTION
Frames: 4
Frame Time: 0.041667
-5.642399 25.097403 8.775513 2.929532 4.759708 5.196777 -0.204901 1.598101 7.917310 -3.538139 -1.314920 -2.411982 0.000001 0.000006 3.404106 -2.223856 -17.403575 -2.104067 0.000001 -0.000005 7.928597 -49.630371 8.339352 22.259747 0.000001 -0.000001 2.173903 -5.156571 3.277153 -6.008019 2.833798 -1.396301 4.843305 31.801453 -6.933275 -6.762063 4.363598 0.000006 -0.000011 -50.641748 5.217321 -140.528533 -0.000003 0.000004 -10.306895 640.948722 -149.922420 558.498230 0.000004 0.000008 -12.404894 25.281669 342.957923 -307.261469 -2.354801 -1.897203 5.063105 -3.722710 5.473225 -3.234480 -4.375795 0.000004 -0.000012 74.485904 -17.030730 161.175990 0.000001 0.000004 -10.004995 -635.854767 -171.199484 -572.328434 -0.000008 0.000004 -13.174900 16.021715 -41.900762 303.380774 2.240597 0.386803 -2.614103 142.664565 -31.499869 109.393901 -0.000000 0.000001 -18.592894 -115.041108 33.636657 134.342909 -0.000001 -0.000000 -18.765800 9.600879 34.304113 -4.024540 -2.014898 -0.220893 -2.615899 -117.466946 -12.397253 -96.393961 -0.000001 0.000006 -18.633883 172.986903 24.964331 -174.193648 -0.000005 -0.000004 -18.285088 -14.572137 31.812832 -207.918144
-5.641799 25.095699 8.775818 2.924175 4.748733 5.212117 -0.204900 1.598102 7.917308 -3.531108 -1.268777 -2.421924 -0.000001 -0.000000 3.404104 -2.268482 -17.426466 -2.113087 0.000001 -0.000008 7.928599 -49.663460 8.313156 22.259404 -0.000002 -0.000000 2.173898 -5.152279 3.272062 -5.991549 2.833798 -1.396301 4.843304 31.835635 -6.975174 -6.777599 4.363596 0.000006 -0.000005 -50.716231 5.224956 -140.450942 -0.000005 0.000004 -10.306894 640.947028 -149.883529 558.512273 0.000003 0.000003 -12.404901 25.290575 342.986555 -307.227947 -2.354801 -1.897203 5.063106 -3.708178 5.501960 -3.244867 -4.375797 0.000001 -0.000013 74.433305 -17.056937 161.207108 0.000002 0.000004 -10.004993 -635.884219 -171.208104 -572.380344 -0.000007 0.000005 -13.174900 16.036692 -41.883304 303.419269 2.240598 0.386804 -2.614102 142.654839 -31.487356 109.353938 0.000001 -0.000001 -18.592894 -114.980812 33.560018 134.292352 0.000001 0.000001 -18.765799 9.705546 34.321526 -4.140713 -2.014895 -0.220896 -2.615897 -117.450785 -12.431582 -96.370889 -0.000000 0.000001 -18.633883 172.965784 24.970444 -174.202786 -0.000005 -0.000006 -18.285084 -14.562522 31.814092 -207.933839
-5.640799 25.093700 8.776112 2.921897 4.740443 5.221964 -0.204900 1.598102 7.917313 -3.526863 -1.227142 -2.428409 0.000001 0.000004 3.404101 -2.307808 -17.448309 -2.121090 0.000001 -0.000002 7.928602 -49.695736 8.288489 22.260345 -0.000002 0.000000 2.173899 -5.150685 3.270555 -5.979825 2.833797 -1.396297 4.843305 31.872589 -6.991213 -6.785744 4.363597 0.000005 -0.000007 -50.786927 5.238067 -140.412994 -0.000003 0.000002 -10.306900 641.034345 -149.901287 558.554074 0.000007 0.000003 -12.404894 25.245501 342.992538 -307.159618 -2.354801 -1.897198 5.063105 -3.692737 5.541074 -3.279480 -4.375799 0.000001 -0.000016 74.370043 -17.058514 161.251764 0.000002 0.000009 -10.004989 -635.912359 -171.212393 -572.429740 -0.000009 0.000002 -13.174892 16.014975 -41.865713 303.443230 2.240598 0.386802 -2.614101 142.639936 -31.479457 109.306584 -0.000000 -0.000002 -18.592890 -114.922195 33.496713 134.253789 0.000000 0.000000 -18.765799 9.809368 34.348253 -4.312040 -2.014896 -0.220898 -2.615896 -117.435909 -12.471888 -96.348984 -0.000001 0.000003 -18.633886 172.946933 24.976429 -174.214630 -0.000005 -0.000007 -18.285084 -14.552167 31.814348 -207.953606
-5.639400 25.091703 8.776306 2.920634 4.736201 5.225404 -0.204901 1.598106 7.917311 -3.524156 -1.194595 -2.429577 0.000000 0.000004 3.404097 -2.339368 -17.462617 -2.127407 0.000002 -0.000002 7.928601 -49.726175 8.267915 22.258741 0.000003 -0.000000 2.173896 -5.155867 3.269089 -5.964970 2.833798 -1.396303 4.843303 31.895327 -6.989383 -6.791755 4.363597 0.000003 -0.000011 -50.835015 5.258952 -140.405467 -0.000007 0.000006 -10.306895 641.195538 -149.965204 558.614944 0.000006 0.000003 -12.404895 25.157197 342.982812 -307.063230 -2.354800 -1.897204 5.063102 -3.673261 5.582266 -3.331902 -4.375798 0.000004 -0.000013 74.275077 -17.035687 161.299849 0.000003 0.000006 -10.004992 -635.953723 -171.213035 -572.473343 -0.000009 0.000002 -13.174908 15.961814 -41.852377 303.449623 2.240596 0.386806 -2.614100 142.622983 -31.475284 109.255016 0.000000 0.000002 -18.592896 -114.873058 33.454065 134.233148 -0.000001 0.000001 -18.765799 9.904280 34.382827 -4.537480 -2.014895 -0.220892 -2.615901 -117.421675 -12.515697 -96.329942 -0.000000 0.000002 -18.633884 172.930759 24.981630 -174.228427 -0.000006 -0.000005 -18.285084 -14.542998 31.813672 -207.975545
